# File created by Blade
# Date/Time:  Tue Jan 27 19:32:46 2015
#---------------------------------------------------------
:version 1.10
:name HOM
:units
  mass 1.0
  length 1.000000
  angle deg
:documentation
     Acclaim Skeleton File
:root
   axis xyz
   order TX TY TZ RX RY RZ
   position 0.000000 0.000000 0.000000
   orientation 0 0 0
:bonedata
   begin
      id 1
      name Spine_dum
      direction 0.000000 1.000000 0.000000
      length 6.116652
      axis 0.0 0.0 0.0 xyz
   end
   begin
      id 2
      name LeftUpLeg_dum
      direction 1.000000 0.000000 0.000000
      length 4.711765
      axis 0.0 0.0 0.0 xyz
   end
   begin
      id 3
      name RightUpLeg_dum
      direction -1.000000 0.000000 0.000000
      length 4.711765
      axis 0.0 0.0 0.0 xyz
   end
   begin
      id 4
      name Spine
      direction 0.000000 1.000000 0.000000
      length 0.000000
      axis 0.0 0.0 0.0 xyz
      dof rx ry rz
   end
   begin
      id 5
      name Spine_dum1
      direction 0.000000 1.000000 0.000000
      length 15.225563
      axis 0.0 0.0 0.0 xyz
   end
   begin
      id 6
      name Spine_dum2
      direction 0.000000 1.000000 0.000000
      length 8.977654
      axis 0.0 0.0 0.0 xyz
   end
   begin
      id 7
      name Spine_dum3
      direction 0.000000 1.000000 0.000000
      length 8.977654
      axis 0.0 0.0 0.0 xyz
   end
   begin
      id 8
      name Head
      direction 0.000000 1.000000 0.000000
      length 4.527550
      axis 0.0 0.0 0.0 xyz
      dof rx ry rz
   end
   begin
      id 9
      name LeftShoulder
      direction 1.000000 0.000000 0.000000
      length 7.110130
      axis 0.0 0.0 -90.0 xyz
      dof rx ry rz
   end
   begin
      id 10
      name LeftArm
      direction 1.000000 0.000000 0.000000
      length 10.398341
      axis 0.0 0.0 -90.0 xyz
      dof rx ry rz
   end
   begin
      id 11
      name LeftForeArm
      direction 1.000000 0.000000 0.000000
      length 8.888997
      axis 0.0 0.0 -90.0 xyz
      dof ry rz rx
   end
   begin
      id 12
      name LeftHand
      direction 0.000000 0.000000 0.000000
      length 0.000000
      axis 0.0 0.0 -90.0 xyz
      dof rx ry rz
   end
   begin
      id 13
      name LeftHand_dum1
      direction 0.000000 0.000000 0.000000
      length 0.000000
      axis 0.0 0.0 -90.0 xyz
   end
   begin
      id 14
      name LeftHand_dum2
      direction 1.000000 0.000000 0.000000
      length 3.937000
      axis 0.0 0.0 -90.0 xyz
   end
   begin
      id 15
      name LeftHandThumb1
      direction 0.000000 0.000000 1.000000
      length 3.937000
      axis 0.0 0.0 -90.0 xyz
      dof rx rz ry
   end
   begin
      id 16
      name RightShoulder
      direction -1.000000 0.000000 0.000000
      length 7.110130
      axis 0.0 0.0 90.0 xyz
      dof rx ry rz
   end
   begin
      id 17
      name RightArm
      direction -1.000000 0.000000 0.000000
      length 10.398341
      axis 0.0 0.0 90.0 xyz
      dof rx ry rz
   end
   begin
      id 18
      name RightForeArm
      direction -1.000000 0.000000 0.000000
      length 8.888997
      axis 0.0 0.0 90.0 xyz
      dof ry rz rx
   end
   begin
      id 19
      name RightHand
      direction 0.000000 0.000000 0.000000
      length 0.000000
      axis 0.0 0.0 90.0 xyz
      dof rx ry rz
   end
   begin
      id 20
      name RightHand_dum1
      direction 0.000000 0.000000 0.000000
      length 0.000000
      axis 0.0 0.0 90.0 xyz
   end
   begin
      id 21
      name RightHand_dum2
      direction -1.000000 0.000000 0.000000
      length 3.937000
      axis 0.0 0.0 90.0 xyz
   end
   begin
      id 22
      name RightHandThumb1
      direction 0.000000 0.000000 1.000000
      length 3.937000
      axis 0.0 0.0 90.0 xyz
      dof rx rz ry
   end
   begin
      id 23
      name LeftUpLeg
      direction 0.000000 -1.000000 0.000000
      length 15.510451
      axis 0.0 0.0 0.0 xyz
      dof rx ry rz
   end
   begin
      id 24
      name LeftLeg
      direction 0.000000 -1.000000 0.000000
      length 14.858061
      axis 0.0 0.0 0.0 xyz
      dof rx ry rz
   end
   begin
      id 25
      name LeftFoot
      direction 0.000000 -0.258819 0.965926
      length 5.128852
      axis 15.0 0.0 0.0 xyz
      dof rx ry rz
   end
   begin
      id 26
      name LeftToeBase
      direction 0.000000 0.000000 1.000000
      length 2.952750
      axis 0.0 0.0 0.0 xyz
      dof rx ry rz
   end
   begin
      id 27
      name RightUpLeg
      direction 0.000000 -1.000000 0.000000
      length 15.510451
      axis 0.0 0.0 0.0 xyz
      dof rx ry rz
   end
   begin
      id 28
      name RightLeg
      direction 0.000000 -1.000000 0.000000
      length 14.858061
      axis 0.0 0.0 0.0 xyz
      dof rx ry rz
   end
   begin
      id 29
      name RightFoot
      direction 0.000000 -0.258819 0.965926
      length 5.128852
      axis 15.0 0.0 0.0 xyz
      dof rx ry rz
   end
   begin
      id 30
      name RightToeBase
      direction 0.000000 0.000000 1.000000
      length 2.952750
      axis 0.0 0.0 0.0 xyz
      dof rx ry rz
   end
:hierarchy
   begin
      root Spine_dum LeftUpLeg_dum RightUpLeg_dum
      Spine_dum Spine
      LeftUpLeg_dum LeftUpLeg
      RightUpLeg_dum RightUpLeg
      Spine Spine_dum1 Spine_dum2 Spine_dum3
      Spine_dum1 Head
      Spine_dum2 LeftShoulder
      Spine_dum3 RightShoulder
      LeftShoulder LeftArm
      LeftArm LeftForeArm
      LeftForeArm LeftHand
      LeftHand LeftHand_dum1 LeftHand_dum2
      LeftHand_dum1 LeftHandThumb1
      RightShoulder RightArm
      RightArm RightForeArm
      RightForeArm RightHand
      RightHand RightHand_dum1 RightHand_dum2
      RightHand_dum1 RightHandThumb1
      LeftUpLeg LeftLeg
      LeftLeg LeftFoot
      LeftFoot LeftToeBase
      RightUpLeg RightLeg
      RightLeg RightFoot
      RightFoot RightToeBase
   end

# File created by Blade
# Date/Time:  Tue Jan 27 19:32:37 2015
# Frame Rate: 120.000 fps
#------------------------------------------------------
:FULLY-SPECIFIED
:DEGREES
391
root 4.272121 32.240101 -0.339457 -5.276335 15.138379 1.357544
Spine 2.305420 31.488040 0.322199
Head 5.580374 -22.583054 9.067646
LeftShoulder 4.081955 -16.697649 24.671663
LeftArm 1.774311 54.988780 -104.771921
LeftForeArm 2.328184 -0.000000 10.320532
LeftHand 10.016784 -0.000000 -7.684585
LeftHandThumb1 -26.253704 0.000000 33.147579
RightShoulder 7.101172 19.657517 -31.901485
RightArm 55.511573 -39.702171 93.937064
RightForeArm 16.205292 -0.000000 35.467425
RightHand 18.852726 -0.000000 1.119661
RightHandThumb1 -24.326973 -0.000000 -32.862282
LeftUpLeg 9.855355 -8.857673 -4.124225
LeftLeg 3.065184 -0.000000 -0.000000
LeftFoot -17.941511 15.177065 -20.816763
LeftToeBase 16.227913 -0.000000 -0.000000
RightUpLeg 14.344039 -20.976126 -2.924076
RightLeg -1.507101 -0.000000 0.000000
RightFoot -14.181277 -14.463443 16.168562
RightToeBase 10.101693 -0.000000 -0.000000
392
root 4.278180 32.239053 -0.341124 -5.273928 15.294392 1.354162
Spine 2.329376 31.429448 0.320996
Head 5.575632 -22.554824 9.050321
LeftShoulder 4.026783 -16.617464 24.648780
LeftArm 1.875209 54.873855 -104.609458
LeftForeArm 2.224207 -0.000000 10.494101
LeftHand 10.174444 0.000000 -7.434427
LeftHandThumb1 -26.253704 0.000000 33.147579
RightShoulder 7.149160 19.622353 -31.832912
RightArm 55.201690 -39.823248 93.947481
RightForeArm 14.863257 -0.000000 34.499082
RightHand 18.681479 0.000000 1.148047
RightHandThumb1 -24.326973 -0.000000 -32.862282
LeftUpLeg 9.829954 -8.879664 -4.119680
LeftLeg 3.069568 -0.000000 -0.000000
LeftFoot -17.916457 15.096888 -20.723903
LeftToeBase 16.362039 -0.000000 -0.000000
RightUpLeg 14.369061 -21.036921 -2.932239
RightLeg -1.512990 -0.000000 0.000000
RightFoot -14.212224 -14.554745 16.188390
RightToeBase 10.114573 -0.000000 -0.000000
393
root 4.287475 32.238921 -0.341721 -5.274121 15.419139 1.370284
Spine 2.366506 31.401597 0.325194
Head 5.562854 -22.504965 8.988236
LeftShoulder 3.984258 -16.537544 24.609939
LeftArm 1.916781 54.707676 -104.472843
LeftForeArm 2.147972 0.000000 10.717607
LeftHand 10.177399 -0.000000 -7.688397
LeftHandThumb1 -26.253704 0.000000 33.147579
RightShoulder 7.054396 19.462427 -31.862919
RightArm 55.882754 -40.380152 92.552346
RightForeArm 14.174139 -0.000000 33.768794
RightHand 18.211832 -0.000000 0.678063
RightHandThumb1 -24.326973 -0.000000 -32.862282
LeftUpLeg 9.836432 -8.946510 -4.153366
LeftLeg 3.044552 -0.000000 -0.000000
LeftFoot -17.880481 15.079392 -20.698875
LeftToeBase 16.455886 -0.000000 -0.000000
RightUpLeg 14.394922 -21.099506 -2.974576
RightLeg -1.500927 -0.000000 0.000000
RightFoot -14.252658 -14.580746 16.219150
RightToeBase 10.147393 -0.000000 -0.000000
394
root 4.297479 32.238177 -0.342021 -5.241947 15.511847 1.382457
Spine 2.337101 31.376085 0.302265
Head 5.577454 -22.418353 8.933965
LeftShoulder 3.938064 -16.423587 24.599076
LeftArm 1.933820 54.486880 -104.367126
LeftForeArm 2.271762 -0.000000 10.938578
LeftHand 10.185225 -0.000000 -7.483877
LeftHandThumb1 -26.253704 0.000000 33.147579
RightShoulder 6.968489 19.237478 -31.848896
RightArm 56.571322 -40.844990 91.323407
RightForeArm 13.409396 -0.000000 33.016080
RightHand 17.885043 0.000000 0.272977
RightHandThumb1 -24.326973 -0.000000 -32.862282
LeftUpLeg 9.835588 -9.057270 -4.189999
LeftLeg 2.979649 -0.000000 -0.000000
LeftFoot -17.850193 15.113752 -20.679657
LeftToeBase 16.454148 -0.000000 -0.000000
RightUpLeg 14.377779 -21.121074 -2.993968
RightLeg -1.486878 -0.000000 0.000000
RightFoot -14.304705 -14.623641 16.290145
RightToeBase 10.129542 -0.000000 -0.000000
